#!OML:ASF F:\VICON\USERDATA\INSTALL\rory3\rory3.ASF
:FULLY-SPECIFIED
:DEGREES
107
root 1.03242 16.3988 -18.0411 12.5121 -0.604883 -1.10797
lowerback 22.0032 0.036353 -0.537219
upperback 2.14732 0.156276 2.22919
thorax -9.97216 0.148304 2.72258
lowerneck -22.7073 -4.81451 -9.13539
upperneck 5.82148 -4.84521 8.49204
head 5.81001 -1.91407 3.65513
rclavicle 4.37326e-015 6.75868e-015
rhumerus -29.1748 6.1293 -85.2688
rradius 69.5976
rwrist 2.80852
rhand -13.9406 16.0683
rfingers 7.12502
rthumb 12.1864 -13.5567
lclavicle 4.37326e-015 6.75868e-015
lhumerus -29.956 -3.67533 86.9533
lradius 64.3122
lwrist 0.436202
lhand -21.0967 19.64
lfingers 7.12502
lthumb 5.28102 49.5542
rfemur -40.2824 -2.03728 21.3098
rtibia 57.4719
rfoot -23.1028 -7.32097
rtoes 2.12623
lfemur -41.4388 4.19472 -18.351
ltibia 56.9155
lfoot -24.1348 1.66602
ltoes -1.05198
108
root 1.0261 16.304 -18.0855 13.0125 -0.65166 -1.1083
lowerback 22.5725 0.109115 -0.572589
upperback 2.11381 0.240566 2.17405
thorax -10.3234 0.19202 2.66458
lowerneck -23.0087 -4.89346 -8.93634
upperneck 5.55199 -4.96063 8.43261
head 5.77222 -1.9639 3.58732
rclavicle 4.17448e-015 -4.77083e-015
rhumerus -29.2511 6.14533 -85.2417
rradius 71.3151
rwrist 2.8802
rhand -14.3629 16.6579
rfingers 7.12502
rthumb 11.7792 -12.9909
lclavicle 4.17448e-015 -4.77083e-015
lhumerus -29.9855 -3.74433 86.7824
lradius 65.9212
lwrist 0.562283
lhand -20.4946 21.7987
lfingers 7.12502
lthumb 5.86232 51.6976
rfemur -41.9983 -2.20318 21.3981
rtibia 59.2096
rfoot -23.626 -7.01193
rtoes 4.21209
lfemur -43.1002 4.47611 -18.4046
ltibia 58.564
lfoot -24.595 1.41242
ltoes -0.831079
109
root 1.01736 16.1994 -18.1356 13.552 -0.731715 -1.26472
lowerback 22.9938 0.175468 -0.504534
upperback 2.16992 0.344768 2.16852
thorax -10.4938 0.238707 2.59132
lowerneck -23.4622 -4.95603 -8.81039
upperneck 5.27925 -5.02661 8.42113
head 5.75457 -1.98456 3.55226
rclavicle 1.59028e-015 -1.19271e-015
rhumerus -29.1921 6.12639 -85.1977
rradius 73.0268
rwrist 2.87501
rhand -14.6713 17.35
rfingers 7.12502
rthumb 11.4818 -12.3156
lclavicle 1.59028e-015 -1.19271e-015
lhumerus -29.9052 -3.64421 86.5987
lradius 67.5557
lwrist 0.681671
lhand -19.7313 23.9478
lfingers 7.12502
lthumb 6.59917 53.825
rfemur -43.7635 -2.20201 21.6598
rtibia 60.8975
rfoot -24.0874 -6.84697
rtoes 4.7354
lfemur -44.8557 4.78101 -18.2722
ltibia 60.2326
lfoot -25.0246 1.2659
ltoes -1.10731
110
root 1.01038 16.0895 -18.1816 14.1916 -0.668268 -1.43597
lowerback 23.2096 0.147685 -0.370158
upperback 2.28199 0.34374 2.18404
thorax -10.4836 0.231576 2.5325
lowerneck -23.8939 -4.90579 -8.66663
upperneck 4.74705 -4.93765 8.42222
head 5.63637 -1.93025 3.53817
rclavicle -2.38542e-015 0
rhumerus -28.8259 6.26927 -85.1548
rradius 74.5871
rwrist 2.75935
rhand -14.903 17.8502
rfingers 7.12502
rthumb 11.2583 -11.8277
lclavicle -2.38542e-015 0
lhumerus -29.6528 -3.29796 86.3433
lradius 69.0673
lwrist 0.664144
lhand -19.5485 24.1825
lfingers 7.12502
lthumb 6.77564 54.054
rfemur -45.6612 -2.49602 22.0974
rtibia 62.5278
rfoot -24.204 -7.35444
rtoes 0.974038
lfemur -46.7412 4.99716 -18.1355
ltibia 61.896
lfoot -25.4466 1.1642
ltoes -1.61646
111
root 1.00485 15.9817 -18.2244 14.8345 -0.604531 -1.59638
lowerback 23.4583 0.0970481 -0.240585
upperback 2.35323 0.312949 2.19586
thorax -10.5356 0.211633 2.48282
lowerneck -24.3528 -4.84027 -8.53183
upperneck 4.22871 -4.83063 8.4676
head 5.52655 -1.86356 3.54257
rclavicle -2.78299e-015 -3.18055e-015
rhumerus -28.4082 6.4845 -85.1062
rradius 76.0017
rwrist 2.68554
rhand -15.2915 18.1349
rfingers 7.12502
rthumb 10.8836 -11.5631
lclavicle -2.78299e-015 -3.18055e-015
lhumerus -29.4753 -2.85842 86.1137
lradius 70.605
lwrist 0.675218
lhand -19.9794 24.505
lfingers 7.12502
lthumb 6.35973 54.3895
rfemur -47.5301 -2.83694 22.6065
rtibia 64.0867
rfoot -24.1928 -8.25606
rtoes -3.575
lfemur -48.5941 5.23752 -18.0404
ltibia 63.495
lfoot -25.8237 1.04487
ltoes -2.07939
112
root 0.998619 15.8728 -18.2707 15.358 -0.635588 -1.62368
lowerback 23.9521 0.139896 -0.267358
upperback 2.37714 0.363893 2.17972
thorax -10.7773 0.237938 2.4695
lowerneck -24.8872 -4.8503 -8.40568
upperneck 3.98159 -4.81973 8.41572
head 5.5187 -1.84896 3.50426
rclavicle 5.1684e-015 -2.78299e-015
rhumerus -28.1565 6.52481 -85.0147
rradius 77.3965
rwrist 2.65526
rhand -16.0604 18.4764
rfingers 7.12502
rthumb 10.1418 -11.2592
lclavicle 5.1684e-015 -2.78299e-015
lhumerus -29.5043 -2.58094 85.9918
lradius 72.31
lwrist 0.985127
lhand -20.8329 23.4249
lfingers 7.12502
lthumb 5.53568 53.3326
rfemur -49.2359 -3.0559 22.8916
rtibia 65.6997
rfoot -24.4275 -8.73277
rtoes -5.67778
lfemur -50.3067 5.57265 -18.1261
ltibia 65.0667
lfoot -26.2409 0.971453
ltoes -3.09245
113
root 0.991683 15.7786 -18.3153 15.8403 -0.639112 -1.58709
lowerback 24.5213 0.230249 -0.313825
upperback 2.40479 0.469541 2.14777
thorax -11.0572 0.290283 2.43168
lowerneck -25.3586 -4.90315 -8.46324
upperneck 3.66795 -4.82879 8.51907
head 5.49102 -1.83683 3.54439
rclavicle 1.98785e-015 -1.61016e-014
rhumerus -28.0707 6.33127 -84.8704
rradius 79.0553
rwrist 2.51956
rhand -16.781 18.9064
rfingers 7.12502
rthumb 9.44669 -10.8618
lclavicle 1.98785e-015 -1.61016e-014
lhumerus -29.5228 -2.36148 85.9197
lradius 74.085
lwrist 0.899297
lhand -20.2666 24.3855
lfingers 7.12502
lthumb 6.08243 54.2782
rfemur -50.7961 -3.28592 23.0509
rtibia 67.2708
rfoot -24.7697 -8.85399
rtoes -6.76828
lfemur -51.8649 5.82879 -18.2726
ltibia 66.5344
lfoot -26.6395 0.983231
ltoes -4.16619
114
root 0.982846 15.6633 -18.3558 16.4282 -0.564221 -1.56486
lowerback 24.8309 0.247534 -0.321375
upperback 2.44332 0.484719 2.08938
thorax -11.1797 0.296696 2.3679
lowerneck -25.5531 -4.95643 -8.50781
upperneck 3.14209 -4.8629 8.7096
head 5.36061 -1.83737 3.60951
rclavicle -2.18663e-015 -1.70955e-014
rhumerus -28.0466 6.12406 -84.8272
rradius 80.7379
rwrist 2.44799
rhand -17.4149 19.0693
rfingers 7.12502
rthumb 8.835 -10.7258
lclavicle -2.18663e-015 -1.70955e-014
lhumerus -29.3694 -1.92921 85.7682
lradius 75.5517
lwrist 0.595289
lhand -21.7717 28.0082
lfingers 7.12502
lthumb 4.62921 57.9376
rfemur -52.556 -3.49897 23.2368
rtibia 68.9111
rfoot -25.1153 -9.03014
rtoes -8.00233
lfemur -53.6172 5.96911 -18.3591
ltibia 68.0556
lfoot -26.8846 0.971266
ltoes -4.99275
115
root 0.972995 15.5446 -18.3993 16.9749 -0.372994 -1.5445
lowerback 25.1189 0.169491 -0.254785
upperback 2.56165 0.394241 2.02483
thorax -11.1939 0.249263 2.2887
lowerneck -25.7119 -4.99328 -8.47066
upperneck 2.44084 -4.89845 8.95406
head 5.16997 -1.83576 3.6797
rclavicle -3.77691e-015 -9.14409e-015
rhumerus -27.7057 6.02991 -84.8274
rradius 82.0345
rwrist 2.26532
rhand -17.8694 19.3886
rfingers 7.12502
rthumb 8.39636 -10.4245
lclavicle -3.77691e-015 -9.14409e-015
lhumerus -29.0647 -1.44383 85.5967
lradius 76.9229
lwrist 0.86256
lhand -29.2882 32.0986
lfingers 7.12502
lthumb -2.63007 62.0622
rfemur -54.2923 -3.70675 23.44
rtibia 70.5183
rfoot -25.513 -9.15574
rtoes -7.91237
lfemur -55.3494 5.96927 -18.3728
ltibia 69.5824
lfoot -27.1559 0.889141
ltoes -5.34477
116
root 0.963401 15.4334 -18.4379 17.3828 -0.283236 -1.5108
lowerback 25.5544 0.152554 -0.253372
upperback 2.78535 0.365663 1.97003
thorax -11.169 0.232671 2.23743
lowerneck -26.2738 -5.02448 -8.35835
upperneck 1.81685 -4.90923 9.09572
head 5.05247 -1.81947 3.70599
rclavicle 1.39149e-015 -3.97569e-015
rhumerus -26.849 5.85151 -84.7814
rradius 82.8663
rwrist 1.88661
rhand -18.2629 20.1936
rfingers 7.12502
rthumb 8.01661 -9.63437
lclavicle 1.39149e-015 -3.97569e-015
lhumerus -28.7123 -0.979054 85.4452
lradius 78.4114
lwrist 1.00539
lhand -26.8004 22.5646
lfingers 7.12502
lthumb -0.227278 52.5442
rfemur -55.8103 -3.84925 23.5802
rtibia 72.0727
rfoot -25.9605 -9.20503
rtoes -7.19143
lfemur -56.8333 6.00732 -18.3762
ltibia 71.1534
lfoot -27.6361 0.607138
ltoes -4.81041
117
root 0.955972 15.3204 -18.474 17.9234 -0.336257 -1.47918
lowerback 25.9153 0.234038 -0.366613
upperback 2.8606 0.439052 1.95743
thorax -11.2784 0.271533 2.26598
lowerneck -26.4792 -5.00308 -8.29056
upperneck 1.0326 -4.83816 9.07354
head 4.82099 -1.78637 3.69771
rclavicle -1.19271e-015 -4.57205e-015
rhumerus -26.0764 5.55371 -84.6535
rradius 83.535
rwrist 1.5448
rhand -18.7432 21.9459
rfingers 7.12502
rthumb 7.55298 -7.89921
lclavicle -1.19271e-015 -4.57205e-015
lhumerus -28.4797 -0.462944 85.3942
lradius 79.7022
lwrist 0.77919
lhand -25.2865 20.9541
lfingers 7.12502
lthumb 1.23485 50.9303
rfemur -57.4757 -3.93656 23.7105
rtibia 73.5901
rfoot -26.2696 -9.43265
rtoes -7.98699
lfemur -58.4777 6.12164 -18.4496
ltibia 72.7687
lfoot -28.032 0.569952
ltoes -5.44074
118
root 0.945434 15.1959 -18.5196 18.55 -0.357729 -1.51742
lowerback 26.2165 0.313566 -0.481708
upperback 2.83934 0.517905 2.0102
thorax -11.4677 0.31627 2.36792
lowerneck -26.2785 -4.98402 -8.32512
upperneck 0.065806 -4.76631 9.11459
head 4.48175 -1.76047 3.72876
rclavicle -2.38542e-015 -1.15295e-014
rhumerus -25.634 5.31333 -84.4713
rradius 84.3186
rwrist 1.33626
rhand -18.3742 21.4892
rfingers 7.12502
rthumb 7.90917 -8.34287
lclavicle -2.38542e-015 -1.15295e-014
lhumerus -28.2998 0.213895 85.4275
lradius 80.8127
lwrist 0.465351
lhand -25.3658 20.5848
lfingers 7.12502
lthumb 1.15823 50.5614
rfemur -59.2903 -3.86302 23.9036
rtibia 75.0796
rfoot -26.4724 -9.66923
rtoes -8.74878
lfemur -60.3207 6.24236 -18.4281
ltibia 74.4283
lfoot -28.3447 0.545392
ltoes -6.41345
119
root 0.9271 15.0524 -18.5934 19.26 -0.367369 -1.91508
lowerback 26.6702 0.434336 -0.410238
upperback 2.86419 0.719818 2.19905
thorax -11.6909 0.412086 2.47301
lowerneck -26.6266 -5.03549 -8.46035
upperneck -0.680591 -4.73185 9.23552
head 4.29591 -1.73234 3.79551
rclavicle 9.93923e-016 -8.15017e-015
rhumerus -25.1106 5.06556 -84.2146
rradius 85.1582
rwrist 1.17938
rhand -18.1143 21.6391
rfingers 7.12502
rthumb 8.16 -8.18331
lclavicle 9.93923e-016 -8.15017e-015
lhumerus -27.8192 0.988762 85.5346
lradius 81.9317
lwrist 0.138377
lhand -25.4714 19.7823
lfingers 7.12502
lthumb 1.05625 49.7595
rfemur -61.3481 -3.35365 24.4456
rtibia 76.5319
rfoot -26.4837 -9.92759
rtoes -8.85968
lfemur -62.4815 6.51164 -17.9472
ltibia 76.1301
lfoot -28.5704 0.32065
ltoes -6.60657
